<svg width="92" height="21" viewBox="0 0 92 21" fill="none" xmlns="http://www.w3.org/2000/svg">
<path d="M14.975 20.45L17.275 18.175L15.45 16.225C17.325 14.575 18.4 12.1 18.4 9.2V9C18.4 3.65 14.575 0 9.2 0C3.9 0 0 3.775 0 9.1V9.3C0 14.55 3.575 18.4 9.175 18.4C10.4 18.4 11.525 18.2 12.55 17.875L14.975 20.45ZM9.25 15.275C6.3 15.275 4.225 13.05 4.225 9.275V9.075C4.225 5.45 6.1 3.2 9.2 3.2C12.325 3.2 14.175 5.575 14.175 9.05V9.25C14.175 11.05 13.725 12.5 12.95 13.55L10.75 11.175L8.4 13.375L10.1 15.225C9.825 15.25 9.55 15.275 9.25 15.275ZM29.6602 15.175C26.7352 15.175 24.6352 12.925 24.6352 9.275V9.075C24.6352 5.475 26.5102 3.2 29.6102 3.2C32.7352 3.2 34.585 5.575 34.585 9.05V9.25C34.585 12.85 32.6852 15.175 29.6602 15.175ZM29.5852 18.4C35.16 18.4 38.81 14.525 38.81 9.2V9C38.81 3.625 34.985 0 29.6102 0C24.3102 0 20.4102 3.775 20.4102 9.1V9.3C20.4102 14.525 23.9852 18.4 29.5852 18.4ZM41.745 18.125H45.77V11.225H47.52L51.795 18.125H56.095L51.37 10.525C53.47 9.9 55.045 8.475 55.045 5.775V5.675C55.045 1.975 52.37 0.25 48.145 0.25H41.745V18.125ZM45.77 8.475V3.35H48.045C49.995 3.35 51.095 3.975 51.095 5.8V5.9C51.095 7.625 50.07 8.475 48.045 8.475H45.77ZM58.542 18.125H70.592V14.975H62.567V10.525H68.667V7.575H62.567V3.4H70.192V0.25H58.542V18.125ZM73.41 18.125H77.46V11.2H83.335V8.15H77.46V3.425H84.885V0.25H73.41V18.125ZM87.695 18.125H91.77V0.25H87.695V18.125Z" fill="black"/>
</svg>
