<svg width="38" height="38" viewBox="0 0 38 38" fill="none" xmlns="http://www.w3.org/2000/svg">
<rect width="38" height="38" rx="5" fill="black"/>
<path d="M25.1813 12.6671C24.8884 12.3742 24.8884 11.8994 25.1813 11.6065L31.3256 5.46219L27.833 5.46219C27.4187 5.46219 27.083 5.1264 27.083 4.71219C27.083 4.29798 27.4187 3.96219 27.833 3.96219L33.1363 3.96219C33.5505 3.96219 33.8863 4.29798 33.8863 4.71219L33.8863 10.0155C33.8863 10.4297 33.5505 10.7655 33.1363 10.7655C32.722 10.7655 32.3863 10.4297 32.3863 10.0155L32.3863 6.52285L26.242 12.6671C25.9491 12.96 25.4742 12.96 25.1813 12.6671Z" fill="white"/>
<path d="M12.6664 24.182C12.9592 24.4749 12.9592 24.9497 12.6664 25.2426L6.52206 31.3869L10.0147 31.3869C10.4289 31.3869 10.7647 31.7227 10.7647 32.1369C10.7647 32.5511 10.4289 32.8869 10.0147 32.8869L4.7114 32.8869C4.29719 32.8869 3.9614 32.5511 3.9614 32.1369L3.96141 26.8336C3.9614 26.4194 4.29719 26.0836 4.7114 26.0836C5.12562 26.0836 5.4614 26.4194 5.4614 26.8336L5.4614 30.3263L11.6057 24.182C11.8986 23.8891 12.3735 23.8891 12.6664 24.182Z" fill="white"/>
</svg>
