<svg width="80" height="80" viewBox="0 0 80 80" fill="none" xmlns="http://www.w3.org/2000/svg">
<path d="M53.3327 53.3333L39.9993 40L26.666 53.3333" stroke="black" stroke-width="2" stroke-linecap="round" stroke-linejoin="round"/>
<path d="M40 40V70" stroke="black" stroke-width="2" stroke-linecap="round" stroke-linejoin="round"/>
<path d="M67.9675 61.2999C71.2186 59.5274 73.787 56.7228 75.2671 53.3286C76.7472 49.9344 77.0549 46.144 76.1415 42.5555C75.2282 38.967 73.1458 35.7849 70.2231 33.5114C67.3004 31.2378 63.7037 30.0023 60.0008 29.9999H55.8008C54.7919 26.0973 52.9114 22.4743 50.3007 19.4032C47.69 16.332 44.417 13.8927 40.7278 12.2686C37.0387 10.6444 33.0293 9.87773 29.0012 10.0261C24.9731 10.1746 21.0311 11.2342 17.4714 13.1254C13.9118 15.0166 10.8272 17.6902 8.44958 20.9451C6.07195 24.2001 4.46314 27.9517 3.74411 31.9178C3.02508 35.884 3.21453 39.9616 4.29822 43.8441C5.38192 47.7265 7.33165 51.3127 10.0008 54.3332" stroke="black" stroke-width="2" stroke-linecap="round" stroke-linejoin="round"/>
<path d="M53.3327 53.3333L39.9993 40L26.666 53.3333" stroke="black" stroke-width="2" stroke-linecap="round" stroke-linejoin="round"/>
</svg>
